<svg xmlns="http://www.w3.org/2000/svg" xmlns:xlink="http://www.w3.org/1999/xlink" xmlns:sketch="http://www.bohemiancoding.com/sketch/ns" width="100.0px" height="100px" viewBox="0 0 121 121" version="1.1">
    <title>chart_line_1</title>
    <description>Created with Sketch (http://www.bohemiancoding.com/sketch)</description>
    <defs/>
    <g id="Statistics" stroke="none" stroke-width="1" fill="none" fill-rule="evenodd" sketch:type="MSPage">
        <path d="M105,108 L12,108 L12,106.5 L12,15 L12,15 L10,15 L13,10 L16,15 L14,15 L14,106 L105,106 L105,103.952637 L110,106.976318 L105,110 L105,108 L105,108 Z M20.4084051,99.9106456 C18.2212618,99.2615972 18,96.4309014 18,96.4309014 L32.4234837,55.3281725 C32.822036,54.1924145 36.0273191,53.4364372 37.2314083,54.1942066 L64.9970703,71.6679688 L99.2630319,25.061559 C99.2630319,25.061559 101.522121,23.1983039 103.448609,24.408831 C105.375097,25.6193582 104.963003,28.2292889 104.963003,28.2292889 L68.6096344,78.7046386 C68.0756937,79.445996 65.0445986,79.6941963 64.0629916,79.076939 C55.019208,73.389997 36.9316406,62.0161133 36.9316406,62.0161133 L24.4477321,98.3986518 C24.4477321,98.3986518 22.5955483,100.559694 20.4084051,99.9106456 Z M20.4084051,99.9106456" id="chart_line_1" fill="#000000" sketch:type="MSShapeGroup"/>
    </g>
</svg>