<?xml version="1.0" encoding="UTF-8" standalone="no"?>
<svg width="1129px" height="1872px" viewBox="0 0 1129 1872" version="1.1" xmlns="http://www.w3.org/2000/svg" xmlns:xlink="http://www.w3.org/1999/xlink" xmlns:sketch="http://www.bohemiancoding.com/sketch/ns">
    <!-- Generator: Sketch 3.3.2 (12043) - http://www.bohemiancoding.com/sketch -->
    <title>ReMed Mockup 2 copy 4</title>
    <desc>Created with Sketch.</desc>
    <defs>
        <filter x="-50%" y="-50%" width="200%" height="200%" filterUnits="objectBoundingBox" id="filter-1">
            <feOffset dx="0" dy="1" in="SourceAlpha" result="shadowOffsetInner1"></feOffset>
            <feGaussianBlur stdDeviation="1.5" in="shadowOffsetInner1" result="shadowBlurInner1"></feGaussianBlur>
            <feComposite in="shadowBlurInner1" in2="SourceAlpha" operator="arithmetic" k2="-1" k3="1" result="shadowInnerInner1"></feComposite>
            <feColorMatrix values="0 0 0 0 0   0 0 0 0 0   0 0 0 0 0  0 0 0 0.35 0" in="shadowInnerInner1" type="matrix" result="shadowMatrixInner1"></feColorMatrix>
            <feMerge>
                <feMergeNode in="SourceGraphic"></feMergeNode>
                <feMergeNode in="shadowMatrixInner1"></feMergeNode>
            </feMerge>
        </filter>
    </defs>
    <g id="Page-1" stroke="none" stroke-width="1" fill="none" fill-rule="evenodd" sketch:type="MSPage">
        <g id="Stethoscope" sketch:type="MSLayerGroup" transform="translate(15.000000, 0.000000)">
            <path d="M565.338707,741 L565.338696,890.969488 C565.338696,890.969488 570.244523,967.414863 530.894418,997.600067 C491.544313,1027.78527 440.869389,1027.982 399.112803,1027.982 C357.356218,1027.98201 264.344925,1040.22393 211.346169,1050.87754 C158.347413,1061.53114 89.2696251,1075.50013 44.3009927,1148.29972 C-0.667639688,1221.09932 1.00738899,1384.32276 1.00738904,1444.69317 C1.00738909,1505.06358 1.00738904,1664.6438 82.8643588,1761.11765 C164.721329,1857.5915 336.61593,1857.00008 421.735139,1857 C506.854348,1856.99992 726.259856,1854.60523 800.13691,1845.72717 C874.013965,1836.84912 962.641061,1788.66809 1012.84553,1727.55573 C1063.05,1666.44336 1068.74099,1624.99926 1078.49629,1564.62891 C1088.25158,1504.25856 1077.8365,1192.12698 1057.48811,1148.29971" id="Path-6" stroke="#1D1D1D" stroke-width="30" sketch:type="MSShapeGroup"></path>
            <g id="Left-Side" transform="translate(146.000000, 0.000000)" sketch:type="MSShapeGroup">
                <path d="M294.759904,15.329884 C160.12188,15.329884 82.5271528,40.3898276 44.2249631,80.0315156 C5.92277335,119.673204 3.14790148e-06,163.330678 0,221.420189 C-3.14790148e-06,279.509701 32.5078915,434.572019 57.2831115,490.983647 C82.0583315,547.395275 133.441395,610.433854 167.845509,637.657882 C202.249622,664.881909 241.366445,696.886456 300.520398,715.619869 C359.674351,734.353282 388.909058,738.083465 413.684278,738.083465" id="Path-2-Copy-5" stroke="#979797" stroke-width="15"></path>
                <path d="M57.2831115,490.983647 C82.0583315,547.395275 133.441395,610.433854 167.845509,637.657882 C202.249622,664.881909 241.366445,696.886456 300.520398,715.619869 C359.674351,734.353282 388.909058,738.083465 413.684278,738.083465" id="Path-2-Copy-4" stroke="#1D1D1D" stroke-width="30" stroke-linecap="round"></path>
                <path d="M313.02428,0.000499403609 C323.646115,0.073426934 332.232582,8.12422616 332.232582,18.0448663 C332.232582,27.9655064 323.646115,36.0163056 313.02428,36.0892331 L274.316639,36.0897325 L274.316639,0 L313.02428,0 Z" id="Oval-1-Copy-5" fill="#000000"></path>
            </g>
            <g id="Right-Side" transform="translate(559.009360, 0.000000)" sketch:type="MSShapeGroup">
                <path d="M294.743099,18.1504654 C160.452976,18.1504654 83.0587526,43.210409 44.8555349,82.852097 C6.65231728,122.493785 0.744851391,166.151259 0.744848251,224.240771 C0.744845111,282.330282 33.1687401,437.3926 57.8799414,493.804228 C82.5911427,550.215856 133.841433,613.254436 168.156647,640.478463 C202.471862,667.702491 241.487607,699.707037 300.488707,718.44045 C359.489808,737.173863 388.648973,740.904046 413.360174,740.904046" id="Path-2-Copy-2" stroke="#979797" stroke-width="15" transform="translate(207.052511, 379.527256) scale(-1, 1) translate(-207.052511, -379.527256) "></path>
                <path d="M1.16488101,490.983647 C25.8760823,547.395275 77.1263731,610.433854 111.441587,637.657882 C145.756801,664.881909 184.772547,696.886456 243.773647,715.619869 C302.774748,734.353282 331.933913,738.083465 356.645114,738.083465" id="Path-2-Copy-3" stroke="#1D1D1D" stroke-width="30" stroke-linecap="round" transform="translate(178.904998, 614.533556) scale(-1, 1) translate(-178.904998, -614.533556) "></path>
                <path d="M120.034883,0.106098493 C130.629272,0.179026024 139.193552,8.22982525 139.193552,18.1504654 C139.193552,28.0711055 130.629272,36.1219047 120.034883,36.1948322 L81.4272622,36.1953316 L81.4272622,0.10559909 L120.034883,0.10559909 Z" id="Oval-1-Copy-3" fill="#000000" transform="translate(110.310407, 18.150465) scale(-1, 1) translate(-110.310407, -18.150465) "></path>
            </g>
        </g>
        <g id="Listen" sketch:type="MSLayerGroup" transform="translate(989.000000, 1033.000000)">
            <path d="M69,138 C107.107648,138 138,107.107648 138,69 C138,30.8923523 107.107648,0 69,0 C30.8923523,0 0,30.8923523 0,69 C0,107.107648 30.8923523,138 69,138 Z" id="Oval-7" stroke="#000000" stroke-width="4" fill="#C0C0C0" filter="url(#filter-1)" sketch:type="MSShapeGroup"></path>
            <circle id="Oval-6" stroke="#484848" fill="#E8E8E8" sketch:type="MSShapeGroup" cx="69" cy="69" r="39"></circle>
        </g>
    </g>
</svg>